<mxfile host="Electron" modified="2024-05-04T18:29:07.980Z" agent="Mozilla/5.0 (Windows NT 10.0; Win64; x64) AppleWebKit/537.36 (KHTML, like Gecko) draw.io/24.2.5 Chrome/120.0.6099.109 Electron/28.1.0 Safari/537.36" etag="ijYbnyiEFt6JcqiqirLZ" version="24.2.5" type="device">
  <diagram name="Page-1" id="cJD0f06-JthY3py7TRbJ">
    <mxGraphModel dx="2924" dy="1204" grid="1" gridSize="10" guides="1" tooltips="1" connect="1" arrows="1" fold="1" page="1" pageScale="1" pageWidth="850" pageHeight="1100" math="0" shadow="0">
      <root>
        <mxCell id="0" />
        <mxCell id="1" parent="0" />
        <mxCell id="5OCAOKwR4BYCnvJfHp_j-1" value="&lt;font style=&quot;font-size: 18px;&quot;&gt;Student&lt;/font&gt;" style="text;html=1;align=center;verticalAlign=middle;resizable=0;points=[];autosize=1;strokeColor=none;fillColor=none;" vertex="1" parent="1">
          <mxGeometry x="-620" y="200" width="90" height="40" as="geometry" />
        </mxCell>
        <mxCell id="5OCAOKwR4BYCnvJfHp_j-2" value="&lt;u&gt;id&lt;/u&gt;" style="rounded=0;whiteSpace=wrap;html=1;" vertex="1" parent="1">
          <mxGeometry x="-610" y="250" width="120" height="60" as="geometry" />
        </mxCell>
        <mxCell id="5OCAOKwR4BYCnvJfHp_j-3" value="Fname" style="rounded=0;whiteSpace=wrap;html=1;" vertex="1" parent="1">
          <mxGeometry x="-490" y="250" width="120" height="60" as="geometry" />
        </mxCell>
        <mxCell id="5OCAOKwR4BYCnvJfHp_j-4" value="Lname" style="rounded=0;whiteSpace=wrap;html=1;" vertex="1" parent="1">
          <mxGeometry x="-370" y="250" width="120" height="60" as="geometry" />
        </mxCell>
        <mxCell id="5OCAOKwR4BYCnvJfHp_j-5" value="Age" style="rounded=0;whiteSpace=wrap;html=1;" vertex="1" parent="1">
          <mxGeometry x="-250" y="250" width="120" height="60" as="geometry" />
        </mxCell>
        <mxCell id="5OCAOKwR4BYCnvJfHp_j-6" value="Address" style="rounded=0;whiteSpace=wrap;html=1;" vertex="1" parent="1">
          <mxGeometry x="-130" y="250" width="120" height="60" as="geometry" />
        </mxCell>
        <mxCell id="5OCAOKwR4BYCnvJfHp_j-7" value="name" style="rounded=0;whiteSpace=wrap;html=1;" vertex="1" parent="1">
          <mxGeometry x="275" y="140" width="120" height="60" as="geometry" />
        </mxCell>
        <mxCell id="5OCAOKwR4BYCnvJfHp_j-8" value="duration" style="rounded=0;whiteSpace=wrap;html=1;" vertex="1" parent="1">
          <mxGeometry x="395" y="140" width="120" height="60" as="geometry" />
        </mxCell>
        <mxCell id="5OCAOKwR4BYCnvJfHp_j-9" value="description" style="rounded=0;whiteSpace=wrap;html=1;" vertex="1" parent="1">
          <mxGeometry x="515" y="140" width="120" height="60" as="geometry" />
        </mxCell>
        <mxCell id="5OCAOKwR4BYCnvJfHp_j-10" value="&lt;u&gt;id&lt;/u&gt;" style="rounded=0;whiteSpace=wrap;html=1;" vertex="1" parent="1">
          <mxGeometry x="155" y="140" width="120" height="60" as="geometry" />
        </mxCell>
        <mxCell id="5OCAOKwR4BYCnvJfHp_j-12" value="&lt;font style=&quot;font-size: 18px;&quot;&gt;Course&lt;/font&gt;" style="text;html=1;align=center;verticalAlign=middle;resizable=0;points=[];autosize=1;strokeColor=none;fillColor=none;" vertex="1" parent="1">
          <mxGeometry x="150" y="90" width="80" height="40" as="geometry" />
        </mxCell>
        <mxCell id="5OCAOKwR4BYCnvJfHp_j-13" value="name" style="rounded=0;whiteSpace=wrap;html=1;" vertex="1" parent="1">
          <mxGeometry x="840" y="240" width="120" height="60" as="geometry" />
        </mxCell>
        <mxCell id="5OCAOKwR4BYCnvJfHp_j-16" value="&lt;u&gt;id&lt;/u&gt;" style="rounded=0;whiteSpace=wrap;html=1;" vertex="1" parent="1">
          <mxGeometry x="720" y="240" width="120" height="60" as="geometry" />
        </mxCell>
        <mxCell id="5OCAOKwR4BYCnvJfHp_j-17" value="&lt;font style=&quot;font-size: 18px;&quot;&gt;Topic&lt;/font&gt;" style="text;html=1;align=center;verticalAlign=middle;resizable=0;points=[];autosize=1;strokeColor=none;fillColor=none;" vertex="1" parent="1">
          <mxGeometry x="720" y="200" width="70" height="40" as="geometry" />
        </mxCell>
        <mxCell id="5OCAOKwR4BYCnvJfHp_j-18" value="name" style="rounded=0;whiteSpace=wrap;html=1;" vertex="1" parent="1">
          <mxGeometry x="1110" y="240" width="120" height="60" as="geometry" />
        </mxCell>
        <mxCell id="5OCAOKwR4BYCnvJfHp_j-19" value="&lt;u&gt;id&lt;/u&gt;" style="rounded=0;whiteSpace=wrap;html=1;" vertex="1" parent="1">
          <mxGeometry x="990" y="240" width="120" height="60" as="geometry" />
        </mxCell>
        <mxCell id="5OCAOKwR4BYCnvJfHp_j-20" value="&lt;font style=&quot;font-size: 18px;&quot;&gt;Department&lt;/font&gt;" style="text;html=1;align=center;verticalAlign=middle;resizable=0;points=[];autosize=1;strokeColor=none;fillColor=none;" vertex="1" parent="1">
          <mxGeometry x="990" y="190" width="120" height="40" as="geometry" />
        </mxCell>
        <mxCell id="5OCAOKwR4BYCnvJfHp_j-21" value="&lt;u&gt;id&lt;/u&gt;" style="rounded=0;whiteSpace=wrap;html=1;" vertex="1" parent="1">
          <mxGeometry x="-590" y="460" width="120" height="60" as="geometry" />
        </mxCell>
        <mxCell id="5OCAOKwR4BYCnvJfHp_j-22" value="name" style="rounded=0;whiteSpace=wrap;html=1;" vertex="1" parent="1">
          <mxGeometry x="-470" y="460" width="120" height="60" as="geometry" />
        </mxCell>
        <mxCell id="5OCAOKwR4BYCnvJfHp_j-23" value="bonus" style="rounded=0;whiteSpace=wrap;html=1;" vertex="1" parent="1">
          <mxGeometry x="-350" y="460" width="120" height="60" as="geometry" />
        </mxCell>
        <mxCell id="5OCAOKwR4BYCnvJfHp_j-24" value="address" style="rounded=0;whiteSpace=wrap;html=1;" vertex="1" parent="1">
          <mxGeometry x="-230" y="460" width="120" height="60" as="geometry" />
        </mxCell>
        <mxCell id="5OCAOKwR4BYCnvJfHp_j-25" value="salary" style="rounded=0;whiteSpace=wrap;html=1;" vertex="1" parent="1">
          <mxGeometry x="-110" y="460" width="120" height="60" as="geometry" />
        </mxCell>
        <mxCell id="5OCAOKwR4BYCnvJfHp_j-26" value="&lt;font style=&quot;font-size: 18px;&quot;&gt;Instructor&lt;/font&gt;" style="text;html=1;align=center;verticalAlign=middle;resizable=0;points=[];autosize=1;strokeColor=none;fillColor=none;" vertex="1" parent="1">
          <mxGeometry x="-605" y="410" width="100" height="40" as="geometry" />
        </mxCell>
        <mxCell id="5OCAOKwR4BYCnvJfHp_j-27" value="hour-rate" style="rounded=0;whiteSpace=wrap;html=1;" vertex="1" parent="1">
          <mxGeometry x="10" y="460" width="120" height="60" as="geometry" />
        </mxCell>
        <mxCell id="5OCAOKwR4BYCnvJfHp_j-30" style="edgeStyle=orthogonalEdgeStyle;rounded=0;orthogonalLoop=1;jettySize=auto;html=1;entryX=0.825;entryY=0.017;entryDx=0;entryDy=0;entryPerimeter=0;" edge="1" parent="1" source="5OCAOKwR4BYCnvJfHp_j-28" target="5OCAOKwR4BYCnvJfHp_j-21">
          <mxGeometry relative="1" as="geometry">
            <mxPoint x="-500" y="400" as="targetPoint" />
            <Array as="points">
              <mxPoint x="1285" y="390" />
              <mxPoint x="1100" y="390" />
              <mxPoint x="1100" y="400" />
              <mxPoint x="-491" y="400" />
            </Array>
          </mxGeometry>
        </mxCell>
        <mxCell id="5OCAOKwR4BYCnvJfHp_j-28" value="instructorID" style="rounded=0;whiteSpace=wrap;html=1;" vertex="1" parent="1">
          <mxGeometry x="1225" y="240" width="120" height="60" as="geometry" />
        </mxCell>
        <mxCell id="5OCAOKwR4BYCnvJfHp_j-29" value="" style="endArrow=none;dashed=1;html=1;dashPattern=1 3;strokeWidth=2;rounded=0;" edge="1" parent="1">
          <mxGeometry width="50" height="50" relative="1" as="geometry">
            <mxPoint x="1255" y="280" as="sourcePoint" />
            <mxPoint x="1315" y="280" as="targetPoint" />
          </mxGeometry>
        </mxCell>
        <mxCell id="5OCAOKwR4BYCnvJfHp_j-33" style="edgeStyle=orthogonalEdgeStyle;rounded=0;orthogonalLoop=1;jettySize=auto;html=1;entryX=0.65;entryY=1.017;entryDx=0;entryDy=0;entryPerimeter=0;" edge="1" parent="1" source="5OCAOKwR4BYCnvJfHp_j-31" target="5OCAOKwR4BYCnvJfHp_j-19">
          <mxGeometry relative="1" as="geometry">
            <mxPoint x="880" y="430" as="targetPoint" />
            <Array as="points">
              <mxPoint x="190" y="430" />
              <mxPoint x="883" y="430" />
              <mxPoint x="883" y="350" />
              <mxPoint x="1068" y="350" />
            </Array>
          </mxGeometry>
        </mxCell>
        <mxCell id="5OCAOKwR4BYCnvJfHp_j-31" value="departmentID" style="rounded=0;whiteSpace=wrap;html=1;" vertex="1" parent="1">
          <mxGeometry x="130" y="460" width="120" height="60" as="geometry" />
        </mxCell>
        <mxCell id="5OCAOKwR4BYCnvJfHp_j-32" value="" style="endArrow=none;dashed=1;html=1;dashPattern=1 3;strokeWidth=2;rounded=0;" edge="1" parent="1">
          <mxGeometry width="50" height="50" relative="1" as="geometry">
            <mxPoint x="155" y="500" as="sourcePoint" />
            <mxPoint x="225" y="500" as="targetPoint" />
          </mxGeometry>
        </mxCell>
        <mxCell id="5OCAOKwR4BYCnvJfHp_j-36" style="edgeStyle=orthogonalEdgeStyle;rounded=0;orthogonalLoop=1;jettySize=auto;html=1;entryX=0.392;entryY=0.983;entryDx=0;entryDy=0;entryPerimeter=0;" edge="1" parent="1" source="5OCAOKwR4BYCnvJfHp_j-35" target="5OCAOKwR4BYCnvJfHp_j-19">
          <mxGeometry relative="1" as="geometry">
            <mxPoint x="1040" y="330" as="targetPoint" />
            <Array as="points">
              <mxPoint x="50" y="330" />
              <mxPoint x="1037" y="330" />
            </Array>
          </mxGeometry>
        </mxCell>
        <mxCell id="5OCAOKwR4BYCnvJfHp_j-35" value="departmentID" style="rounded=0;whiteSpace=wrap;html=1;" vertex="1" parent="1">
          <mxGeometry x="-10" y="250" width="120" height="60" as="geometry" />
        </mxCell>
        <mxCell id="5OCAOKwR4BYCnvJfHp_j-37" value="" style="endArrow=none;dashed=1;html=1;dashPattern=1 3;strokeWidth=2;rounded=0;" edge="1" parent="1">
          <mxGeometry width="50" height="50" relative="1" as="geometry">
            <mxPoint x="20" y="290" as="sourcePoint" />
            <mxPoint x="90" y="290" as="targetPoint" />
          </mxGeometry>
        </mxCell>
        <mxCell id="5OCAOKwR4BYCnvJfHp_j-40" style="edgeStyle=orthogonalEdgeStyle;rounded=0;orthogonalLoop=1;jettySize=auto;html=1;entryX=0;entryY=0.5;entryDx=0;entryDy=0;" edge="1" parent="1" source="5OCAOKwR4BYCnvJfHp_j-38" target="5OCAOKwR4BYCnvJfHp_j-16">
          <mxGeometry relative="1" as="geometry">
            <mxPoint x="695" y="270" as="targetPoint" />
            <Array as="points">
              <mxPoint x="695" y="270" />
            </Array>
          </mxGeometry>
        </mxCell>
        <mxCell id="5OCAOKwR4BYCnvJfHp_j-38" value="topicID" style="rounded=0;whiteSpace=wrap;html=1;" vertex="1" parent="1">
          <mxGeometry x="635" y="140" width="120" height="60" as="geometry" />
        </mxCell>
        <mxCell id="5OCAOKwR4BYCnvJfHp_j-39" value="" style="endArrow=none;dashed=1;html=1;dashPattern=1 3;strokeWidth=2;rounded=0;" edge="1" parent="1">
          <mxGeometry width="50" height="50" relative="1" as="geometry">
            <mxPoint x="665" y="180" as="sourcePoint" />
            <mxPoint x="725" y="180" as="targetPoint" />
          </mxGeometry>
        </mxCell>
        <mxCell id="5OCAOKwR4BYCnvJfHp_j-48" style="edgeStyle=orthogonalEdgeStyle;rounded=0;orthogonalLoop=1;jettySize=auto;html=1;entryX=0.058;entryY=1.033;entryDx=0;entryDy=0;entryPerimeter=0;" edge="1" parent="1" source="5OCAOKwR4BYCnvJfHp_j-41" target="5OCAOKwR4BYCnvJfHp_j-2">
          <mxGeometry relative="1" as="geometry">
            <mxPoint x="-610" y="800" as="targetPoint" />
            <Array as="points">
              <mxPoint x="-460" y="750" />
              <mxPoint x="-459" y="750" />
              <mxPoint x="-459" y="800" />
              <mxPoint x="-603" y="800" />
            </Array>
          </mxGeometry>
        </mxCell>
        <mxCell id="5OCAOKwR4BYCnvJfHp_j-41" value="studentID" style="rounded=0;whiteSpace=wrap;html=1;" vertex="1" parent="1">
          <mxGeometry x="-520" y="640" width="120" height="60" as="geometry" />
        </mxCell>
        <mxCell id="5OCAOKwR4BYCnvJfHp_j-42" value="" style="endArrow=none;dashed=1;html=1;dashPattern=1 3;strokeWidth=2;rounded=0;" edge="1" parent="1">
          <mxGeometry width="50" height="50" relative="1" as="geometry">
            <mxPoint x="-495" y="680" as="sourcePoint" />
            <mxPoint x="-425" y="680" as="targetPoint" />
          </mxGeometry>
        </mxCell>
        <mxCell id="5OCAOKwR4BYCnvJfHp_j-49" style="edgeStyle=orthogonalEdgeStyle;rounded=0;orthogonalLoop=1;jettySize=auto;html=1;exitX=0.5;exitY=1;exitDx=0;exitDy=0;entryX=0.35;entryY=1.05;entryDx=0;entryDy=0;entryPerimeter=0;" edge="1" parent="1" target="5OCAOKwR4BYCnvJfHp_j-10">
          <mxGeometry relative="1" as="geometry">
            <mxPoint x="200" y="240" as="targetPoint" />
            <mxPoint x="-360" y="700" as="sourcePoint" />
            <Array as="points">
              <mxPoint x="-360" y="760" />
              <mxPoint x="581" y="760" />
              <mxPoint x="581" y="600" />
              <mxPoint x="280" y="600" />
              <mxPoint x="280" y="240" />
              <mxPoint x="197" y="240" />
            </Array>
          </mxGeometry>
        </mxCell>
        <mxCell id="5OCAOKwR4BYCnvJfHp_j-43" value="courseID" style="rounded=0;whiteSpace=wrap;html=1;" vertex="1" parent="1">
          <mxGeometry x="-400" y="640" width="120" height="60" as="geometry" />
        </mxCell>
        <mxCell id="5OCAOKwR4BYCnvJfHp_j-44" value="" style="endArrow=none;dashed=1;html=1;dashPattern=1 3;strokeWidth=2;rounded=0;" edge="1" parent="1">
          <mxGeometry width="50" height="50" relative="1" as="geometry">
            <mxPoint x="-375" y="680" as="sourcePoint" />
            <mxPoint x="-305" y="680" as="targetPoint" />
          </mxGeometry>
        </mxCell>
        <mxCell id="5OCAOKwR4BYCnvJfHp_j-45" value="grade" style="rounded=0;whiteSpace=wrap;html=1;" vertex="1" parent="1">
          <mxGeometry x="-280" y="640" width="120" height="60" as="geometry" />
        </mxCell>
        <mxCell id="5OCAOKwR4BYCnvJfHp_j-47" value="&lt;font style=&quot;font-size: 18px;&quot;&gt;Student_Course&lt;/font&gt;" style="text;html=1;align=center;verticalAlign=middle;resizable=0;points=[];autosize=1;strokeColor=none;fillColor=none;" vertex="1" parent="1">
          <mxGeometry x="-520" y="600" width="150" height="40" as="geometry" />
        </mxCell>
        <mxCell id="5OCAOKwR4BYCnvJfHp_j-50" value="hiring-date" style="rounded=0;whiteSpace=wrap;html=1;" vertex="1" parent="1">
          <mxGeometry x="1345" y="240" width="120" height="60" as="geometry" />
        </mxCell>
        <mxCell id="5OCAOKwR4BYCnvJfHp_j-51" value="" style="endArrow=none;html=1;rounded=0;entryX=0.917;entryY=0.833;entryDx=0;entryDy=0;entryPerimeter=0;" edge="1" parent="1" target="5OCAOKwR4BYCnvJfHp_j-43">
          <mxGeometry width="50" height="50" relative="1" as="geometry">
            <mxPoint x="-500" y="690" as="sourcePoint" />
            <mxPoint x="-420" y="690" as="targetPoint" />
          </mxGeometry>
        </mxCell>
        <mxCell id="5OCAOKwR4BYCnvJfHp_j-59" style="edgeStyle=orthogonalEdgeStyle;rounded=0;orthogonalLoop=1;jettySize=auto;html=1;entryX=0.5;entryY=1;entryDx=0;entryDy=0;" edge="1" parent="1" source="5OCAOKwR4BYCnvJfHp_j-52" target="5OCAOKwR4BYCnvJfHp_j-21">
          <mxGeometry relative="1" as="geometry">
            <mxPoint x="-530" y="560" as="targetPoint" />
            <Array as="points">
              <mxPoint x="311" y="690" />
              <mxPoint x="311" y="681" />
              <mxPoint x="-50" y="681" />
              <mxPoint x="-50" y="560" />
              <mxPoint x="-530" y="560" />
            </Array>
          </mxGeometry>
        </mxCell>
        <mxCell id="5OCAOKwR4BYCnvJfHp_j-52" value="instructorID" style="rounded=0;whiteSpace=wrap;html=1;" vertex="1" parent="1">
          <mxGeometry x="670" y="660" width="120" height="60" as="geometry" />
        </mxCell>
        <mxCell id="5OCAOKwR4BYCnvJfHp_j-53" value="" style="endArrow=none;dashed=1;html=1;dashPattern=1 3;strokeWidth=2;rounded=0;" edge="1" parent="1">
          <mxGeometry width="50" height="50" relative="1" as="geometry">
            <mxPoint x="695" y="700" as="sourcePoint" />
            <mxPoint x="765" y="700" as="targetPoint" />
          </mxGeometry>
        </mxCell>
        <mxCell id="5OCAOKwR4BYCnvJfHp_j-60" style="edgeStyle=orthogonalEdgeStyle;rounded=0;orthogonalLoop=1;jettySize=auto;html=1;entryX=0.558;entryY=1.033;entryDx=0;entryDy=0;entryPerimeter=0;" edge="1" parent="1" source="5OCAOKwR4BYCnvJfHp_j-54" target="5OCAOKwR4BYCnvJfHp_j-10">
          <mxGeometry relative="1" as="geometry">
            <mxPoint x="220" y="280" as="targetPoint" />
            <Array as="points">
              <mxPoint x="850" y="460" />
              <mxPoint x="360" y="460" />
              <mxPoint x="360" y="280" />
              <mxPoint x="222" y="280" />
            </Array>
          </mxGeometry>
        </mxCell>
        <mxCell id="5OCAOKwR4BYCnvJfHp_j-54" value="courseID" style="rounded=0;whiteSpace=wrap;html=1;" vertex="1" parent="1">
          <mxGeometry x="790" y="660" width="120" height="60" as="geometry" />
        </mxCell>
        <mxCell id="5OCAOKwR4BYCnvJfHp_j-55" value="" style="endArrow=none;dashed=1;html=1;dashPattern=1 3;strokeWidth=2;rounded=0;" edge="1" parent="1">
          <mxGeometry width="50" height="50" relative="1" as="geometry">
            <mxPoint x="815" y="700" as="sourcePoint" />
            <mxPoint x="885" y="700" as="targetPoint" />
          </mxGeometry>
        </mxCell>
        <mxCell id="5OCAOKwR4BYCnvJfHp_j-56" value="evaluation" style="rounded=0;whiteSpace=wrap;html=1;" vertex="1" parent="1">
          <mxGeometry x="910" y="660" width="120" height="60" as="geometry" />
        </mxCell>
        <mxCell id="5OCAOKwR4BYCnvJfHp_j-57" value="&lt;font style=&quot;font-size: 18px;&quot;&gt;Instructor_Course&lt;/font&gt;" style="text;html=1;align=center;verticalAlign=middle;resizable=0;points=[];autosize=1;strokeColor=none;fillColor=none;" vertex="1" parent="1">
          <mxGeometry x="660" y="620" width="170" height="40" as="geometry" />
        </mxCell>
        <mxCell id="5OCAOKwR4BYCnvJfHp_j-58" value="" style="endArrow=none;html=1;rounded=0;entryX=0.917;entryY=0.833;entryDx=0;entryDy=0;entryPerimeter=0;" edge="1" target="5OCAOKwR4BYCnvJfHp_j-54" parent="1">
          <mxGeometry width="50" height="50" relative="1" as="geometry">
            <mxPoint x="690" y="710" as="sourcePoint" />
            <mxPoint x="770" y="710" as="targetPoint" />
          </mxGeometry>
        </mxCell>
      </root>
    </mxGraphModel>
  </diagram>
</mxfile>
